<?xml version="1.0" encoding="UTF-8" standalone="no"?>
<svg
   xmlns:dc="http://purl.org/dc/elements/1.1/"
   xmlns:cc="http://creativecommons.org/ns#"
   xmlns:rdf="http://www.w3.org/1999/02/22-rdf-syntax-ns#"
   xmlns:svg="http://www.w3.org/2000/svg"
   xmlns="http://www.w3.org/2000/svg"
   xmlns:sodipodi="http://sodipodi.sourceforge.net/DTD/sodipodi-0.dtd"
   xmlns:inkscape="http://www.inkscape.org/namespaces/inkscape"
   width="640"
   height="480"
   id="svg2"
   version="1.1"
   inkscape:version="0.91 r13725"
   sodipodi:docname="lvl0.svg">
  <defs
     id="defs20" />
  <sodipodi:namedview
     pagecolor="#ffffff"
     bordercolor="#666666"
     borderopacity="1"
     objecttolerance="10"
     gridtolerance="10"
     guidetolerance="10"
     inkscape:pageopacity="0"
     inkscape:pageshadow="2"
     inkscape:window-width="1412"
     inkscape:window-height="691"
     id="namedview18"
     showgrid="false"
     inkscape:zoom="0.23579016"
     inkscape:cx="403.49451"
     inkscape:cy="993.23832"
     inkscape:window-x="0"
     inkscape:window-y="0"
     inkscape:window-maximized="0"
     inkscape:current-layer="g4" />
  <!-- Created with SVG-edit - http://svg-edit.googlecode.com/ -->
  <metadata
     id="metadata17">image/svg+xml<rdf:RDF>
  <cc:Work
     rdf:about="">
    <dc:format>image/svg+xml</dc:format>
    <dc:type
       rdf:resource="http://purl.org/dc/dcmitype/StillImage" />
  </cc:Work>
</rdf:RDF>
</metadata>
  <g
     id="g4"
     display="inline"
     transform="translate(33.032258,12.387097)"
     style="display:inline">
    <title
       id="title6">Layer 1</title>
    <rect
       stroke-miterlimit="4"
       id="svg_1"
       height="94.328346"
       width="34.32835"
       y="-125.87215"
       x="1149.4979"
       style="fill:#00ff00;stroke:#000000;stroke-width:5.67164946;stroke-miterlimit:4" />
    <path
       id="svg_2"
       d=""
       inkscape:connector-curvature="0"
       style="fill:#ff0000;stroke:#000000;stroke-width:9.375" />
    <path
       id="svg_3"
       d=""
       inkscape:connector-curvature="0"
       style="fill:#ff0000;stroke:#000000;stroke-width:9.375" />
    <path
       id="svg_4"
       d="m -586.03755,295.07379 360,0 239.999997,-120 599.999963,0 0,479.99995 -599.999963,0 -599.999997,0 0,-359.99995 z"
       stroke-linecap="null"
       stroke-linejoin="null"
       inkscape:connector-curvature="0"
       style="fill:#000000;stroke:#000000;stroke-width:9.375" />
    <rect
       y="226.90927"
       x="-30.602262"
       height="118.71265"
       width="1035.1604"
       id="rect3400"
       style="fill:#000000;fill-rule:evenodd;stroke:#000000;stroke-width:9.375" />
    <rect
       y="106.26557"
       x="1005.2017"
       height="240"
       width="120"
       id="rect3402"
       style="fill:#000000" />
    <rect
       y="46.265575"
       x="1125.2018"
       height="120"
       width="240"
       id="rect3404"
       style="fill:#000000" />
    <rect
       y="166.26558"
       x="1365.2018"
       height="300"
       width="180"
       id="rect3406"
       style="fill:#000000" />
    <path
       d="m 582.34578,-4.3743643 120,180.0000043 -4.67681,181.55005 L 563.56091,526.92506 389.45085,578.57944 186.56833,503.49131 83.640207,353.86444 92.358938,137.70751 202.8546,-6.4205518 411.12766,-64.924109 582.34578,-4.3743631 Z"
       id="path3428"
       inkscape:connector-curvature="0"
       style="fill:#000000" />
    <path
       id="path3430"
       d="M 1502.4196,180.96381 1622.4186,360.96379 2591.7935,-6.5361818 1502.4196,180.96381 Z"
       inkscape:connector-curvature="0"
       style="fill:#000000;fill-rule:evenodd;stroke:#000000;stroke-width:9.375" />
    <rect
       style="fill:#ff00ff"
       id="rect4168"
       width="260.03284"
       height="21.897503"
       x="-760.00403"
       y="158.8125" />
    <rect
       style="fill:#ff00ff"
       id="rect4170"
       width="287.40469"
       height="19.160313"
       x="1406.5026"
       y="15.515959" />
    <path
       style="fill:#000000;fill-rule:evenodd;stroke:#000000;stroke-width:1.875px;stroke-linecap:butt;stroke-linejoin:miter;stroke-opacity:1"
       d="m -716.89783,296.00569 -117.69907,158.75686 -156.01969,98.53875 -164.23131,68.42969 -205.2891,46.53219 -257.2956,30.10906 -161.4942,8.21156 5.4745,-106.75031 -95.8016,2.73719 -2.7371,98.53875 -125.9108,-13.68594 46.5323,-123.17343 -109.4875,-46.53218 -21.8975,164.23123 -79.3785,24.63469 -24.6348,-257.29561 -158.7567,5.47436 101.2759,270.98156 -164.2313,-32.84625 -5.4742,-342.14843 -164.2313,-5.47437 16.4231,437.94999 246.3469,54.74375 1387.75412,-35.58344 z"
       id="path4172"
       inkscape:connector-curvature="0" />
    <path
       style="fill:#000000;fill-rule:evenodd;stroke:#000000;stroke-width:1.875px;stroke-linecap:butt;stroke-linejoin:miter;stroke-opacity:1"
       d="m -2619.2433,326.11474 -251.8212,-8.21156 -188.866,-24.63469 -210.7635,-68.42968 -191.603,-128.647812 -164.2313,-183.391566 -125.9106,-235.398132 -104.0131,-372.2575 -38.3208,-374.9947 -172.4427,-10.9487 82.1156,1716.21653 1327.536,-131.385 z"
       id="path4174"
       inkscape:connector-curvature="0" />
    <path
       style="fill:#000000;fill-rule:evenodd;stroke:#000000;stroke-width:1.875px;stroke-linecap:butt;stroke-linejoin:miter;stroke-opacity:1"
       d="m -163.98597,-147.41871 -405.10373,5.47439 -2.7372,-134.12219 -125.91063,8.21156 16.42313,125.91063 -322.9881,2.73717 68.42966,-281.9303 -194.34026,5.47438 41.0577,268.24436 -260.0327,16.42312 -16.4232,-372.25748 -290.142,-188.86594 123.1734,577.54655 -405.1036,-528.27718 -62.9554,249.08405 112.2248,448.898776 218.9748,54.743754 500.9055,-54.743754 1026.44535,-114.961875 z"
       id="path4189"
       inkscape:connector-curvature="0" />
    <rect
       style="fill:#0000ff;fill-rule:evenodd;stroke:#000000;stroke-width:1px;stroke-linecap:butt;stroke-linejoin:miter;stroke-opacity:1"
       id="rect3479"
       width="366.81747"
       height="52.979126"
       x="605.37146"
       y="-354.57373" />
    <path
       style="fill:none;fill-rule:evenodd;stroke:#000000;stroke-width:3;stroke-linecap:butt;stroke-linejoin:miter;stroke-miterlimit:4;stroke-dasharray:none;stroke-opacity:1"
       d="M -114.88748,-193.54797 582.8572,-84.900905 1069.0549,53.086407 901.42256,-18.743866 790.81864,177.05702 371.9367,-23.376736 11.786869,20.9559 Z"
       id="path3481"
       inkscape:connector-curvature="0"
       sodipodi:nodetypes="cccccccc" />
  </g>
</svg>
